<svg width="530" height="141" viewBox="0 0 530 141" fill="none" xmlns="http://www.w3.org/2000/svg">
<path d="M513.786 68.6857C512.845 69.1208 512.909 70.7991 513.878 71.1667C517.894 72.6895 521.241 75.1878 523.919 78.6618C527.395 83.0778 529.134 88.1516 529.134 93.883C529.134 102.151 526.221 108.728 520.396 113.614C514.664 118.406 506.631 120.802 496.295 120.802H451.209C450.657 120.802 450.209 120.354 450.209 119.802V22.8643C450.209 22.312 450.657 21.8643 451.209 21.8643H494.745C504.799 21.8643 512.644 24.1662 518.281 28.7702C524.013 33.3741 526.879 39.6223 526.879 47.5148C526.879 53.3401 525.328 58.179 522.228 62.0313C519.988 64.9013 517.174 67.1195 513.786 68.6857ZM474.309 60.8903C474.309 61.4426 474.757 61.8903 475.309 61.8903H490.094C494.04 61.8903 497.047 61.0447 499.114 59.3535C501.275 57.5683 502.356 54.9844 502.356 51.6019C502.356 48.2194 501.275 45.6356 499.114 43.8504C497.047 42.0652 494.04 41.1726 490.094 41.1726H475.309C474.757 41.1726 474.309 41.6203 474.309 42.1726V60.8903ZM492.067 101.353C496.107 101.353 499.208 100.46 501.369 98.6748C503.624 96.7957 504.752 94.1179 504.752 90.6414C504.752 87.165 503.577 84.4402 501.228 82.4671C498.973 80.494 495.826 79.5074 491.785 79.5074H475.309C474.757 79.5074 474.309 79.9551 474.309 80.5074V100.353C474.309 100.905 474.757 101.353 475.309 101.353H492.067Z" fill="white"/>
<path d="M399.059 41.1726C398.507 41.1726 398.059 41.6203 398.059 42.1726V60.1856C398.059 60.7379 398.507 61.1856 399.059 61.1856H429.334C429.886 61.1856 430.334 61.6334 430.334 62.1856V78.7893C430.334 79.3416 429.886 79.7893 429.334 79.7893H399.059C398.507 79.7893 398.059 80.237 398.059 80.7893V100.494C398.059 101.046 398.507 101.494 399.059 101.494H433.562C434.114 101.494 434.562 101.941 434.562 102.494V119.802C434.562 120.354 434.114 120.802 433.562 120.802H374.959C374.407 120.802 373.959 120.354 373.959 119.802V22.8643C373.959 22.312 374.407 21.8643 374.959 21.8643H433.562C434.114 21.8643 434.562 22.312 434.562 22.8643V40.1726C434.562 40.7249 434.114 41.1726 433.562 41.1726H399.059Z" fill="white"/>
<path d="M322.811 41.1726C322.259 41.1726 321.811 41.6203 321.811 42.1726V60.1856C321.811 60.7379 322.259 61.1856 322.811 61.1856H353.086C353.638 61.1856 354.086 61.6334 354.086 62.1856V78.7893C354.086 79.3416 353.638 79.7893 353.086 79.7893H322.811C322.259 79.7893 321.811 80.237 321.811 80.7893V100.494C321.811 101.046 322.259 101.494 322.811 101.494H357.314C357.866 101.494 358.314 101.941 358.314 102.494V119.802C358.314 120.354 357.866 120.802 357.314 120.802H298.711C298.159 120.802 297.711 120.354 297.711 119.802V22.8643C297.711 22.312 298.159 21.8643 298.711 21.8643H357.314C357.866 21.8643 358.314 22.312 358.314 22.8643V40.1726C358.314 40.7249 357.866 41.1726 357.314 41.1726H322.811Z" fill="white"/>
<path d="M246.806 121.793C239.571 121.793 233.088 120.618 227.357 118.269C221.625 115.92 217.022 112.444 213.545 107.84C210.343 103.481 208.572 98.2808 208.233 92.2382C208.202 91.6755 208.655 91.2093 209.219 91.2093H232.937C233.45 91.2093 233.877 91.5982 233.952 92.1054C234.433 95.3363 235.664 97.8563 237.645 99.6655C239.806 101.545 242.625 102.484 246.101 102.484C249.672 102.484 252.491 101.686 254.558 100.088C256.625 98.3971 257.658 96.0951 257.658 93.1824C257.658 90.7395 256.813 88.7194 255.121 87.1221C253.524 85.5248 251.504 84.2094 249.061 83.1759C246.712 82.1423 243.33 80.9679 238.914 79.6525C232.525 77.6793 227.31 75.7062 223.27 73.7331C219.23 71.76 215.753 68.8473 212.84 64.995C209.928 61.1427 208.471 56.116 208.471 49.9148C208.471 40.7069 211.807 33.5191 218.478 28.3515C225.149 23.0898 233.84 20.459 244.551 20.459C255.45 20.459 264.235 23.0898 270.906 28.3515C277.324 33.3229 280.872 40.2075 281.551 49.0052C281.595 49.5756 281.138 50.0557 280.566 50.0557H256.487C255.958 50.0557 255.524 49.642 255.458 49.1166C255.111 46.3693 253.965 44.1924 252.021 42.5861C249.86 40.7069 247.088 39.7673 243.706 39.7673C240.793 39.7673 238.444 40.566 236.659 42.1633C234.874 43.6666 233.981 45.8746 233.981 48.7873C233.981 51.9819 235.484 54.4717 238.491 56.2569C241.498 58.0421 246.195 59.9683 252.585 62.0354C258.974 64.1964 264.141 66.2635 268.088 68.2366C272.128 70.2097 275.604 73.0754 278.517 76.8337C281.43 80.592 282.886 85.4309 282.886 91.3502C282.886 96.9877 281.43 102.108 278.517 106.712C275.698 111.316 271.564 114.981 266.115 117.705C260.665 120.43 254.229 121.793 246.806 121.793Z" fill="white"/>
<path d="M102.006 133.169V7.12165C102.006 4.46623 105.202 3.12003 107.102 4.97505L197.404 93.1383C199.328 95.0175 197.998 98.2849 195.308 98.2849H142.053C141.207 98.2849 140.401 98.6421 139.832 99.2685L107.227 135.185C105.383 137.216 102.006 135.912 102.006 133.169Z" fill="white"/>
<path d="M84.6896 21.8643C85.2419 21.8643 85.6896 22.312 85.6896 22.8643V119.802C85.6896 120.354 85.2419 120.802 84.6896 120.802H62.5894C62.0371 120.802 61.5894 120.354 61.5894 119.802V81.0712C61.5894 80.5189 61.1417 80.0712 60.5894 80.0712H25.1002C24.5479 80.0712 24.1002 80.5189 24.1002 81.0712V119.802C24.1002 120.354 23.6525 120.802 23.1002 120.802H1C0.447715 120.802 0 120.354 0 119.802V22.8643C0 22.312 0.447715 21.8643 1 21.8643H23.1002C23.6525 21.8643 24.1002 22.312 24.1002 22.8643V59.6219C24.1002 60.1742 24.5479 60.6219 25.1002 60.6219H60.5894C61.1417 60.6219 61.5894 60.1742 61.5894 59.6219V22.8643C61.5894 22.312 62.0371 21.8643 62.5894 21.8643H84.6896Z" fill="white"/>
</svg>
